<svg xmlns="http://www.w3.org/2000/svg" height="40" viewBox="0 -960 960 960" width="40"><path d="M245.857-254.808q54.848-37.474 110.88-58.948Q412.769-335.231 480-335.231q67.231 0 123.173 21.475 55.943 21.474 111.84 58.948 42.09-45.115 65.91-101.743 23.821-56.628 23.821-123.272 0-135.78-94.571-230.35-94.57-94.571-230.173-94.571t-230.173 94.571q-94.571 94.57-94.571 230.35 0 66.644 23.898 123.272 23.897 56.628 66.703 101.743Zm234.059-208.833q-50.403 0-84.39-34.071-33.988-34.071-33.988-84.474 0-50.404 34.071-84.391t84.475-33.987q50.403 0 84.39 34.071 33.988 34.071 33.988 84.474 0 50.404-34.071 84.391t-84.475 33.987Zm.229 340.821q-74.257 0-139.589-28.02-65.332-28.019-113.527-76.423-48.196-48.404-76.202-113.37-28.007-64.966-28.007-139.48 0-74.204 28.02-139.324 28.019-65.121 76.423-113.425 48.404-48.305 113.37-76.311 64.966-28.007 139.48-28.007 74.204 0 139.324 28.02 65.121 28.019 113.425 76.423 48.305 48.404 76.311 113.44 28.007 65.037 28.007 139.152 0 74.257-28.02 139.589-28.019 65.332-76.423 113.527-48.404 48.196-113.44 76.202-65.037 28.007-139.152 28.007Zm-.188-32.436q55.889 0 110.511-19.282 54.622-19.282 98.301-56.641-43.679-33.244-96.29-52.43-52.611-19.186-112.396-19.186-59.785 0-113.306 18.359t-95.034 53.257q43.167 37.359 97.746 56.641 54.579 19.282 110.468 19.282Zm.115-340.821q36.89 0 61.422-24.604 24.532-24.603 24.532-61.493t-24.604-61.422q-24.604-24.532-61.494-24.532t-61.422 24.603q-24.532 24.604-24.532 61.494t24.604 61.422q24.604 24.532 61.494 24.532ZM480-582.103Zm0 353.078Z"/></svg>